PathFileType	4	(X/Y/Z)	pose_F01_0-89.trc
DataRate	CameraRate	NumFrames	NumMarkers	Units	OrigDataRate	OrigDataStartFrame	OrigNumFrames
30	30	6	21	m	30	33	89
Frame#	Time	CHip			RHip			RKnee			RAnkle			RBigToe			RSmallToe			RHeel			LHip			LKnee			LAnkle			LBigToe			LSmallToe			LHeel			Neck			Nose			RShoulder			RElbow			RWrist			LShoulder			LElbow			LWrist			
		X1	Y1	Z1	X2	Y2	Z2	X3	Y3	Z3	X4	Y4	Z4	X5	Y5	Z5	X6	Y6	Z6	X7	Y7	Z7	X8	Y8	Z8	X9	Y9	Z9	X10	Y10	Z10	X11	Y11	Z11	X12	Y12	Z12	X13	Y13	Z13	X14	Y14	Z14	X15	Y15	Z15	X16	Y16	Z16	X17	Y17	Z17	X18	Y18	Z18	X19	Y19	Z19	X20	Y20	Z20	X21	Y21	Z21	
33	1.1	-0.24339038228730658	1.8363480510105274	-0.4982850636235204	-0.2582506073143334	1.832777361234171	-0.44139172378383734	-0.2569925248505248	1.717405077238628	-0.4571959792178864	-0.23617752880919282	1.6136640673274332	-0.4413703695802904							-0.22638552464021186	1.6123964979942877	-0.4246374230687787	-0.23052682458537785	1.8389357667563995	-0.5644404745713975	-0.23610093179580113	1.712540017549222	-0.5716471092197516	-0.2185205390324726	1.6113646605605323	-0.5016269895724365	-0.21910110380702325	1.5683460253217354	-0.5587694937546674	-0.2080152618170154	1.587321202290445	-0.5768019074783618	-0.21264218055935696	1.6131391267722188	-0.5032219231879591	-0.23734356748103158	1.9958624593436696	-0.5206123621206763	-0.2439186621465966	2.0566320185641835	-0.5736711196433656	-0.25875046736967455	1.9946208138998178	-0.4359605385587938	-0.2862729728812475	1.9359254800411858	-0.44979083992108565	-0.27380612469680965	1.9941496279142104	-0.5150950760485908	-0.21334002768416865	1.9975494450277125	-0.6048701125424225	-1.3301853714917415	1.8505129253659893	0.47871125222477795	-0.22476724472292092	2.006298452873252	-0.617121745001035
34	1.1333333333333333	-0.24442634834994692	1.8305107685175017	-0.49206297818780853	-0.2560685964280758	1.82864517214785	-0.43397087268486023	-0.2569925248505248	1.717405077238628	-0.4571959792178864	-0.23617752880919282	1.6136640673274332	-0.4413703695802904							-0.22638552464021186	1.6123964979942877	-0.4246374230687787	-0.22761595934722065	1.8340259228028133	-0.5541990010723856	-0.2355762318192046	1.7151015236195442	-0.5755651142559288	-0.2185205390324726	1.6113646605605323	-0.5016269895724365	-0.21910110380702325	1.5683460253217354	-0.5587694937546674	-0.2080152618170154	1.587321202290445	-0.5768019074783618	-0.21264218055935696	1.6131391267722188	-0.5032219231879591	-0.23922703910164242	1.994817590922486	-0.5178825845628826	-0.24298344702232103	2.0564238504523575	-0.5705017478263422	-0.25950465338816314	1.9934625043453447	-0.4301177026403568	-0.2881510085002883	1.9358718879155281	-0.4387797348958618	-1.62170174083613	1.8904319968250847	0.935963562926852	-0.21434466434104454	1.9991129814121549	-0.5994045961167497	-1.3329005439044708	1.849474819359574	0.48201466629583467	-0.22632720657451125	2.0010120268877336	-0.6306827681182452
35	1.1666666666666667	-0.24226942047910746	1.830421901028434	-0.49418609879991093	-0.2551677221707144	1.8288792162961434	-0.430661731867024	-0.2569925248505248	1.717405077238628	-0.4571959792178864	-0.23617752880919282	1.6136640673274332	-0.4413703695802904							-0.22638552464021186	1.6123964979942877	-0.4246374230687787	-0.22457711801529376	1.8342669628486599	-0.5534069904014263	-0.23505153184260802	1.7176630296898665	-0.5794831192921059	-0.2185205390324726	1.6113646605605323	-0.5016269895724365	-0.21910110380702325	1.5683460253217354	-0.5587694937546674	-0.2080152618170154	1.587321202290445	-0.5768019074783618	-0.21264218055935696	1.6131391267722188	-0.5032219231879591	-0.2393513905958011	1.9903566344346852	-0.517420536131708	-0.24430781208698155	2.0479400523622666	-0.5643033239750269	-0.25784791842030136	1.9882984220180935	-0.4317906787764015	-0.31569654098101735	1.9378955168555563	-0.3952164993360277	-0.29906870276411296	1.979922775275642	-0.4897960924027476	-0.21050919590715728	1.9952308730397266	-0.5950231823694492	-1.3165658110475458	1.8521688136680468	0.4697850947233145	-1.3871265144310356	1.8693519104925633	0.5376611620230812
36	1.2	-0.23606682312090185	1.8346829839561005	-0.5014929066124559	-0.25209951372262435	1.8333901198926517	-0.4390497602943092	-0.2569925248505248	1.717405077238628	-0.4571959792178864	-0.23617752880919282	1.6136640673274332	-0.4413703695802904							-0.22638552464021186	1.6123964979942877	-0.4246374230687787	-0.22214233936576497	1.8370288967353134	-0.5562017784059424	-0.23452683186601148	1.7202245357601886	-0.5834011243282832	-0.2185205390324726	1.6113646605605323	-0.5016269895724365	-0.21910110380702325	1.5683460253217354	-0.5587694937546674	-0.2080152618170154	1.587321202290445	-0.5768019074783618	-0.21264218055935696	1.6131391267722188	-0.5032219231879591	-0.23287309799734682	1.99199290789443	-0.523072536454924	-0.23904062135921172	2.052774776642582	-0.5655730469164623	-0.25469201002499203	1.9931043048244046	-0.4313242146201016	-0.29337293969904255	1.9425345071129827	-0.3703415486835175	-0.3661539805153412	1.9386819057946871	-0.4071371926820779	-0.20680894032557376	1.9920570236763333	-0.6011273524860589	-1.2905096898469124	1.8644020378757766	0.44544958309382865	-0.13886902843529614	1.9666165752943234	-0.8491171337960144
37	1.2333333333333334	-0.2346000506028177	1.839766543251706	-0.507771895036181	-0.2515458338412752	1.837629995099185	-0.4484953153805294	-0.2569925248505248	1.717405077238628	-0.4571959792178864	-0.23617752880919282	1.6136640673274332	-0.4413703695802904							-0.22638552464021186	1.6123964979942877	-0.4246374230687787	-0.22151039226038757	1.8428427062912596	-0.5656560738841209	-0.23008984966508272	1.7212863831282839	-0.5663291298179607	-0.21383452922678053	1.6053007635662664	-0.5018242124902069	-0.21910110380702325	1.5683460253217354	-0.5587694937546674	-0.2080152618170154	1.587321202290445	-0.5768019074783618	-0.21264218055935696	1.6131391267722188	-0.5032219231879591	-0.23084384232770347	1.9972370274573195	-0.526556511127142	-0.23596525174506203	2.05952298670979	-0.5659105453609823	-0.25278981946110546	1.9943458878529188	-0.4339853366033907	-0.2902638982631183	1.9340258259355665	-0.36723820978445837	-0.35854014252415656	1.9066551669604959	-0.37799872607606155	-0.20336655445753213	1.9964025252338506	-0.6090668428704955	-1.264376464765613	1.867683035792526	0.4153847128646641	-0.13778730277917747	1.9401709090127106	-0.8751496637388734
38	1.2666666666666666	-0.23577847737910787	1.8460754744832133	-0.5170433636336356	-0.25177859206190967	1.841368477177002	-0.45474368468613796	-0.2569925248505248	1.717405077238628	-0.4571959792178864	-0.23617752880919282	1.6136640673274332	-0.4413703695802904							-0.22638552464021186	1.6123964979942877	-0.4246374230687787	-0.22029267711568826	1.8473695352492971	-0.5856067613252447	-0.22184028494248306	1.7157421271567925	-0.5486460766127133	-0.21344202012068175	1.6083119128636365	-0.5063523212131211	-0.21910110380702325	1.5683460253217354	-0.5587694937546674	-0.2080152618170154	1.587321202290445	-0.5768019074783618	-0.21264218055935696	1.6131391267722188	-0.5032219231879591	-0.22908754823921756	1.9943525432476479	-0.529211730089012	-0.23390353910854125	2.0623948905693092	-0.5691794402809489	-0.2500814264987039	1.9922345981995615	-0.44152046453934973	-0.2673411392838306	1.9306562692951794	-0.3592463730892907	-0.2794948468599162	1.8680124617215734	-0.26072279404258036	-0.20230339188362512	1.9950669828849945	-0.6239047225093319	-1.2499867064071348	1.8603175733940767	0.3978164219770584	-0.9805152021642056	1.8300921142997897	0.03506153178980903
